<?xml version="1.0" encoding="UTF-8" standalone="no"?>
<!-- Created with Inkscape (http://www.inkscape.org/) -->

<svg
   width="99.481323mm"
   height="135.27461mm"
   viewBox="0 0 99.481323 135.27461"
   version="1.1"
   id="svg1"
   xml:space="preserve"
   xmlns:inkscape="http://www.inkscape.org/namespaces/inkscape"
   xmlns:sodipodi="http://sodipodi.sourceforge.net/DTD/sodipodi-0.dtd"
   xmlns="http://www.w3.org/2000/svg"
   xmlns:svg="http://www.w3.org/2000/svg"><sodipodi:namedview
     id="namedview1"
     pagecolor="#ffffff"
     bordercolor="#000000"
     borderopacity="0.25"
     inkscape:showpageshadow="2"
     inkscape:pageopacity="0.0"
     inkscape:pagecheckerboard="0"
     inkscape:deskcolor="#d1d1d1"
     inkscape:document-units="mm" /><defs
     id="defs1" /><g
     inkscape:label="Layer 1"
     inkscape:groupmode="layer"
     id="layer1"
     transform="translate(-49.853406,-141.21394)"><g
       id="g7"
       transform="translate(83.382362,118.89706)"
       style="fill:#ffffff;fill-opacity:1"><path
         style="fill:#ffffff;fill-opacity:1"
         d="m -18.116448,92.66576 c 0.400182,-0.06062 1.055026,-0.06062 1.455208,0 0.400183,0.06062 0.07276,0.110223 -0.727604,0.110223 -0.800364,0 -1.127786,-0.0496 -0.727604,-0.110223 z m 8.7973954,0.003 c 6.6216445,-0.187366 12.5072556,-0.19305 12.3949575,-0.01197 -0.067685,0.10914 -3.47955167,0.173327 -7.5819268,0.142637 -4.1023751,-0.03069 -6.2682391,-0.08949 -4.8130307,-0.130667 z m 17.2688001,-0.0053 c 0.4755488,-0.05889 1.1899238,-0.05767 1.5874999,0.0027 0.3975761,0.06037 0.00849,0.10855 -0.8646342,0.107065 -0.873125,-0.0015 -1.1984146,-0.05088 -0.7228657,-0.109765 z M 27.92105,92.65766 c 1.709869,-0.04609 4.507838,-0.04609 6.217708,0 1.709869,0.04609 0.310885,0.08379 -3.108854,0.08379 -3.41974,0 -4.818724,-0.03771 -3.108854,-0.08379 z M -8.3173364,77.112562 c 0.00199,-0.727604 0.05337,-0.993858 0.1141855,-0.591675 0.060816,0.402183 0.05919,0.997496 -0.00361,1.322917 -0.062802,0.325421 -0.1125602,-0.0036 -0.1105739,-0.731242 z m -0.01429,-6.217708 c 0,-0.509323 0.05445,-0.717682 0.121,-0.463021 0.06655,0.254661 0.06655,0.67138 0,0.926042 -0.06655,0.254661 -0.121,0.0463 -0.121,-0.463021 z"
         id="path13" /><path
         style="fill:#ffffff;fill-opacity:1"
         d="m 11.036576,85.182353 c 0,-3.710781 0.03721,-5.228828 0.08269,-3.373437 0.04548,1.85539 0.04548,4.891484 0,6.746874 -0.04548,1.855391 -0.08269,0.337344 -0.08269,-3.373437 z M 27.01167,83.132227 c 2.373878,-0.0439 6.183877,-0.04381 8.466666,1.93e-4 2.282789,0.044 0.340526,0.07991 -4.316141,0.07981 -4.656666,-1.06e-4 -6.524402,-0.03611 -4.150525,-0.08 z M 11.024373,66.000062 c 4.62e-4,-1.89177 0.04261,-2.630959 0.09365,-1.642642 0.05105,0.988318 0.05067,2.53613 -8.42e-4,3.439583 -0.05151,0.903454 -0.09327,0.09483 -0.09281,-1.796941 z M -10.424991,44.171939 c 0,-0.945886 0.04802,-1.332839 0.106712,-0.859896 0.05869,0.472942 0.05869,1.246849 0,1.719791 -0.05869,0.472943 -0.106712,0.08599 -0.106712,-0.859895 z m -0.0233,-14.816666 c 0,-0.509323 0.05445,-0.717683 0.121,-0.463021 0.06655,0.254661 0.06655,0.67138 0,0.926041 -0.06655,0.254662 -0.121,0.0463 -0.121,-0.46302 z"
         id="path12" /><path
         style="fill:#ffffff;fill-opacity:1"
         d="m -23.879713,77.244853 c 0,-8.221926 0.03355,-11.585442 0.07456,-7.474478 0.04101,4.110963 0.04101,10.837994 0,14.948957 -0.04101,4.110964 -0.07456,0.747448 -0.07456,-7.474479 z m 3.968608,0 c 0,-8.076405 0.03361,-11.38039 0.07469,-7.342187 0.04108,4.038203 0.04108,10.646172 0,14.684375 -0.04108,4.038203 -0.07469,0.734218 -0.07469,-7.342188 z m 15.023823,4.315533 c 0.2546615,-0.06655 0.6713802,-0.06655 0.9260417,0 0.2546614,0.06655 0.046302,0.121 -0.4630209,0.121 -0.5093228,0 -0.7176822,-0.05445 -0.4630208,-0.121 z m 31.617707,-2.396829 c 2.364713,-0.04385 6.234244,-0.04385 8.598958,0 2.364713,0.04385 0.429947,0.07973 -4.299479,0.07973 -4.729427,0 -6.664193,-0.03588 -4.299479,-0.07973 z m 0.413387,-3.968805 c 2.301034,-0.04409 5.991972,-0.044 8.202083,2.03e-4 2.210111,0.04421 0.327446,0.08028 -4.1837,0.08017 -4.511145,-1.12e-4 -6.319418,-0.03628 -4.018383,-0.08037 z m -0.413387,-3.968694 c 2.364713,-0.04385 6.234244,-0.04385 8.598958,0 2.364713,0.04385 0.429947,0.07973 -4.299479,0.07973 -4.729427,0 -6.664193,-0.03588 -4.299479,-0.07973 z M -5.8133236,68.847709 c 0.7639844,-0.05345 2.0141405,-0.05345 2.7781249,0 0.7639843,0.05345 0.1389062,0.09718 -1.3890625,0.09718 -1.5279686,0 -2.1530467,-0.04373 -1.3890624,-0.09718 z M 27.143812,67.257252 c 2.301034,-0.04409 5.991972,-0.044 8.202083,2.04e-4 2.210111,0.0442 0.327446,0.08028 -4.1837,0.08017 -4.511145,-1.12e-4 -6.319418,-0.03628 -4.018383,-0.08037 z M -5.9456152,64.878497 c 0.8367447,-0.05251 2.2059634,-0.05251 3.0427081,0 0.8367448,0.05251 0.1521354,0.09547 -1.5213541,0.09547 -1.6734894,0 -2.3580988,-0.04296 -1.521354,-0.09547 z m -5.8208328,-3.177739 c 4.0382026,-0.04108 10.646171,-0.04108 14.684374,0 4.0382029,0.04108 0.7342187,0.07469 -7.3421872,0.07469 -8.0764058,0 -11.3803898,-0.03361 -7.3421868,-0.07469 z m -0.132292,-3.968756 c 4.1109634,-0.041 10.8379943,-0.041 14.9489576,0 4.1109633,0.041 0.7474479,0.07455 -7.4744788,0.07455 -8.2219268,0 -11.5854418,-0.03355 -7.4744788,-0.07455 z M -23.890678,40.070897 c 2e-4,-3.201458 0.03841,-4.474781 0.0849,-2.829606 0.0465,1.645174 0.04633,4.264549 -3.64e-4,5.820833 -0.0467,1.556283 -0.08474,0.210231 -0.08454,-2.991227 z m 3.968386,-0.132292 c 0,-3.128697 0.03827,-4.408619 0.08505,-2.84427 0.04678,1.564349 0.04678,4.124192 0,5.688541 -0.04678,1.564349 -0.08505,0.284427 -0.08505,-2.844271 z m -0.051,-10.318749 c 0,-0.509323 0.05445,-0.717682 0.121,-0.463021 0.06655,0.254662 0.06655,0.67138 0,0.926042 -0.06655,0.254661 -0.121,0.0463 -0.121,-0.463021 z m -3.96875,-0.264583 c 0,-0.509323 0.05445,-0.717683 0.121,-0.463021 0.06655,0.254661 0.06655,0.67138 0,0.926041 -0.06655,0.254662 -0.121,0.0463 -0.121,-0.46302 z"
         id="path11" /><path
         style="fill:#ffffff;fill-opacity:1"
         d="m 27.01167,87.100977 c 2.373878,-0.0439 6.183877,-0.04381 8.466666,1.92e-4 2.282789,0.044 0.340526,0.07991 -4.316141,0.07981 -4.656666,-1.06e-4 -6.524402,-0.03611 -4.150525,-0.08 z M -4.7549903,85.536291 c 0.181901,-0.0734 0.4795573,-0.0734 0.6614583,0 0.181901,0.0734 0.033073,0.133452 -0.3307292,0.133452 -0.363802,0 -0.5126301,-0.06005 -0.3307291,-0.133452 z M -14.399141,44.171939 c 0,-0.800365 0.0496,-1.127787 0.110223,-0.727605 0.06062,0.400183 0.06062,1.055026 0,1.455209 -0.06062,0.400182 -0.110223,0.07276 -0.110223,-0.727604 z m -0.0179,-14.552083 c 0,-0.509323 0.05445,-0.717682 0.121,-0.463021 0.06655,0.254662 0.06655,0.67138 0,0.926042 -0.06655,0.254661 -0.121,0.0463 -0.121,-0.463021 z"
         id="path10" /><path
         style="fill:#ffffff;fill-opacity:1"
         d="m -11.766448,96.625756 c 4.0382026,-0.04108 10.646171,-0.04108 14.684374,0 4.0382029,0.04108 0.7342187,0.07469 -7.3421872,0.07469 -8.0764058,0 -11.3803898,-0.03361 -7.3421868,-0.07469 z m 39.937417,9.76e-4 c 1.556283,-0.0467 4.175658,-0.04686 5.820833,-3.63e-4 1.645174,0.0465 0.371851,0.0847 -2.829607,0.0849 -3.201458,2e-4 -4.54751,-0.03784 -2.991226,-0.08454 z M 15.004739,85.182353 c 0,-3.56526 0.03745,-5.023776 0.08323,-3.241146 0.04577,1.782631 0.04577,4.699662 0,6.482292 -0.04578,1.78263 -0.08323,0.324114 -0.08323,-3.241146 z m -0.01246,-19.049999 c 0,-1.81901 0.04227,-2.563151 0.09394,-1.653646 0.05166,0.909505 0.05166,2.397787 0,3.307292 -0.05167,0.909505 -0.09394,0.165364 -0.09394,-1.653646 z M -12.890927,50.422043 c 0,-0.05494 0.208359,-0.263301 0.46302,-0.46302 0.419644,-0.329108 0.429003,-0.319749 0.0999,0.09989 -0.345643,0.44073 -0.562915,0.580888 -0.562915,0.363126 z"
         id="path9" /><path
         style="fill:#ffffff;fill-opacity:1"
         d="m 62.115761,100.92506 c 3e-6,-27.939998 0.03097,-39.330764 0.06882,-25.312812 0.03785,14.017952 0.03784,36.877952 -7e-6,50.800002 -0.03785,13.92204 -0.06881,2.45281 -0.06881,-25.48719 z m -71.0834063,42.79638 c 10.2342109,-0.0384 26.9029603,-0.0384 37.0416643,1e-5 10.138705,0.0384 1.76526,0.0698 -18.6076559,0.0697 -20.3729151,0 -28.6682191,-0.0314 -18.4340084,-0.0698 z M -29.694658,87.034436 c 0,-27.867238 0.03097,-39.267472 0.06882,-25.333853 0.03785,13.93362 0.03785,36.734087 0,50.667707 -0.03785,13.93362 -0.06882,2.53338 -0.06882,-25.333854 z M -12.25466,74.202145 c 3.35e-4,-2.328333 0.04081,-3.245414 0.08995,-2.037958 0.04914,1.207457 0.04886,3.112457 -6.09e-4,4.233334 -0.04947,1.120876 -0.08967,0.132958 -0.08934,-2.195376 z"
         id="path8" /><path
         style="fill:#ffffff;fill-opacity:1"
         d="m -15.139886,157.43301 c -2.712026,-0.66786 -4.894791,-3.32078 -4.894791,-5.94911 0,-0.84961 1.071467,-2.0078 1.857451,-2.0078 1.044146,0 1.564567,0.51959 1.991557,1.98839 0.240278,0.82652 0.664809,1.61765 0.990461,1.84574 0.501587,0.35133 5.070879,0.3992 38.099294,0.3992 26.377432,0 37.688084,-0.0849 38.063526,-0.28588 1.340254,-0.71728 1.283123,1.62019 1.283123,-52.49849 0,-54.118677 0.05713,-51.78121 -1.283123,-52.498492 -0.314839,-0.168496 -2.170895,-0.28588 -4.520316,-0.28588 h -3.986143 l -0.0015,45.04531 c -9.62e-4,29.359992 -0.09406,45.378602 -0.26735,46.002472 -0.382525,1.37712 -1.290292,2.60891 -2.602112,3.53092 l -1.143319,0.80359 -38.407974,0.0781 c -27.155493,0.0552 -38.699942,-0.006 -39.404548,-0.21037 -1.380081,-0.39947 -2.808401,-1.73286 -3.540683,-3.30537 l -0.616948,-1.32484 -0.0026,-51.480474 c -0.0029,-57.147802 -0.137862,-52.938761 1.75869,-54.835314 1.468713,-1.468712 2.536308,-1.857059 5.448621,-1.981979 l 2.579688,-0.110653 0.01161,-1.358289 c 0.02276,-2.662173 1.170278,-4.601202 3.4623,-5.85046 4.471753,-2.437313 9.755253,0.801836 9.755253,5.980644 v 1.289651 h 9.6216093 c 9.3332926,0 9.6425,0.01643 10.3187495,0.54837 0.8851792,0.696282 0.9533302,2.048115 0.1403561,2.78406 -0.5311526,0.480826 -1.2254021,0.507375 -15.0812492,0.576725 l -14.5244657,0.0727 v 5.775154 c 0,5.575409 0.0209,5.80625 0.604211,6.674178 1.226086,1.824328 3.997579,1.584641 4.834374,-0.418089 0.446393,-1.068371 0.499531,-3.162276 0.108702,-4.28341 -0.150451,-0.431583 -0.805294,-1.229182 -1.455208,-1.772443 -1.295138,-1.0826 -1.516931,-1.952504 -0.769785,-3.019204 0.309571,-0.441974 0.676291,-0.588038 1.476375,-0.588038 0.944387,0 1.234936,0.171659 2.575029,1.521354 0.9918,0.998905 1.620556,1.895338 1.830917,2.610384 0.408722,1.389302 0.414062,5.15149 0.0092,6.5027 -0.40702,1.35851 -2.168929,3.338329 -3.515062,3.949799 -1.428447,0.648859 -4.148286,0.648859 -5.576733,0 -1.346133,-0.61147 -3.108042,-2.591289 -3.515062,-3.949799 -0.19873,-0.6633 -0.311154,-3.202305 -0.311154,-7.027115 v -5.988573 h -2.134061 c -1.173733,0 -2.374438,0.128646 -2.668232,0.28588 -1.340145,0.717223 -1.283232,-1.604841 -1.281648,52.291556 9.98e-4,33.977445 0.09053,50.533855 0.276902,51.204945 0.533185,1.9199 -2.383223,1.78636 39.0122451,1.78636 39.6405239,0 38.3853469,0.0388 38.8616859,-1.20248 0.09039,-0.23556 0.164354,-23.50349 0.164354,-51.706509 0,-50.087838 -0.01174,-51.292713 -0.505618,-51.902837 L 47.481167,34.514647 31.955953,34.382356 16.430738,34.250064 15.925113,33.62544 c -0.68758,-0.849402 -0.635161,-1.783435 0.143807,-2.562402 l 0.649431,-0.649432 h 14.976113 c 10.634597,0 15.335741,0.09055 16.216653,0.312371 1.591715,0.400799 3.758353,2.493484 4.228271,4.083951 0.192016,0.649887 0.321765,2.744509 0.321765,5.194455 v 4.105426 l 4.299478,0.116845 c 4.665606,0.126795 5.726044,0.384658 7.177214,1.745258 0.418588,0.392462 1.042503,1.308881 1.386478,2.036485 l 0.625409,1.322916 0.0026,51.430757 c 0.0019,38.27209 -0.07598,51.69298 -0.304479,52.45565 -0.397612,1.32711 -1.840814,3.00058 -3.227094,3.74198 l -1.09605,0.58619 -37.835415,0.0413 c -20.809478,0.0227 -38.192602,-0.0467 -38.629165,-0.15417 z m 0.926042,-127.958585 c 0,-2.824679 -2.811166,-4.320994 -4.792318,-2.550834 -0.676408,0.60437 -0.856585,1.000036 -0.963879,2.116666 l -0.131961,1.373349 h 2.944079 2.944079 z m -8.202083,97.588975 c -1.468717,-0.54004 -1.809682,-2.30142 -0.625777,-3.23268 0.656895,-0.51671 1.030386,-0.54837 6.469842,-0.54837 3.751146,0 6.004088,0.10543 6.43344,0.30105 1.2927743,0.58903 1.3577596,2.37418 0.118038,3.24252 -0.514382,0.36028 -1.476413,0.42199 -6.302852,0.40429 -3.132699,-0.0115 -5.87441,-0.0866 -6.092691,-0.16681 z m 20.7209411,-0.0727 c -1.2420065,-0.51333 -1.4909901,-2.06025 -0.4923436,-3.0589 l 0.6494318,-0.64943 h 7.5169698 c 7.2040849,0 7.5459869,0.0228 8.2141099,0.54837 0.885014,0.69615 0.953305,2.04802 0.140639,2.78406 -0.516212,0.46754 -1.095646,0.50804 -8.0036454,0.55942 -4.0959299,0.0305 -7.7072525,-0.0521 -8.0251615,-0.18352 z m 25.7134319,-0.13699 c -1.324647,-0.46833 -2.401584,-1.64381 -2.774365,-3.02821 -0.193207,-0.71752 -0.262202,-5.45454 -0.211425,-14.51599 l 0.07537,-13.450904 0.661458,-0.976417 c 1.274288,-1.88105 1.947263,-2.0269 9.35245,-2.0269 7.116994,0 7.650768,0.08884 8.945295,1.488768 0.386624,0.418105 0.832444,1.236441 0.990711,1.818524 0.398276,1.464798 0.395928,26.333299 -0.0026,27.768829 -0.159709,0.57526 -0.670647,1.42619 -1.135419,1.89096 -0.464771,0.46477 -1.315702,0.97571 -1.890957,1.13542 -1.61295,0.44781 -12.682124,0.36558 -14.0105,-0.10408 z m 13.229166,-16.9328 V 96.691727 h -6.085417 -6.085416 l -0.0686,13.300193 -0.06859,13.3002 6.154012,-0.071 6.154012,-0.071 z m -59.663539,9.20501 c -1.468717,-0.54004 -1.809682,-2.30142 -0.625777,-3.23268 0.687082,-0.54046 0.917067,-0.54832 15.9411452,-0.54476 8.3842029,0.002 15.5166641,0.0767 15.8499138,0.16593 0.3332497,0.0893 0.7891143,0.51658 1.0130324,0.94959 0.5067766,0.98 0.1306594,2.10138 -0.8555232,2.55072 -0.6778436,0.30884 -30.4973502,0.41471 -31.3227912,0.1112 z m 0,-7.93222 c -1.472568,-0.56105 -1.809904,-2.30652 -0.625777,-3.23796 0.673203,-0.52954 0.996126,-0.54837 9.404735,-0.54837 h 8.7075942 l 0.6494318,0.64943 c 0.7789313,0.77893 0.8313881,1.71296 0.1439104,2.56241 l -0.5055214,0.62462 -8.688749,0.0505 c -4.778812,0.0278 -8.867343,-0.0175 -9.085624,-0.10067 z m 1.455798,-15.051069 c -1.134322,-0.591453 -1.706421,-1.165287 -2.277702,-2.284614 -0.474897,-0.930478 -0.501012,-1.796441 -0.501012,-16.613144 0,-14.816702 0.02612,-15.682665 0.501012,-16.613143 0.573108,-1.122907 1.127603,-1.663728 2.330119,-2.272658 0.752257,-0.380928 2.591559,-0.428781 16.4808521,-0.428781 15.0877919,0 15.6701729,0.01841 16.6665609,0.526724 0.567855,0.289699 1.366784,0.964618 1.775397,1.49982 0.738737,0.967602 0.7434,0.998888 0.825934,5.541835 0.07852,4.321943 0.05351,4.598235 -0.463021,5.114764 -0.696972,0.696972 -1.974487,0.70506 -2.66269,0.01686 -0.480266,-0.480267 -0.529166,-0.881945 -0.529166,-4.346726 0,-3.117731 -0.07622,-3.893779 -0.415774,-4.233334 -0.368037,-0.368036 -2.1100753,-0.415773 -15.1725338,-0.415773 -13.9600902,0 -14.7804002,0.02612 -15.1946422,0.483854 -0.396402,0.438019 -0.437882,1.877395 -0.437882,15.194642 0,13.020666 0.04777,14.758556 0.415774,15.126562 0.291741,0.291741 0.923178,0.415773 2.116666,0.415773 h 1.700893 v -0.932651 c 0,-2.350638 2.002296,-5.990804 4.229572,-7.689347 l 1.265994,-0.96546 -0.829554,-1.333529 -0.829554,-1.33353 -0.07773,-5.977428 -0.07773,-5.977428 0.775325,-1.218642 c 0.526,-0.826756 1.164641,-1.407106 1.9859761,-1.804708 1.1178245,-0.541129 1.5223658,-0.579555 5.27608,-0.50115 3.9250532,0.08198 4.10336658,0.11005 5.1641302,0.812816 0.6042855,0.400344 1.3689436,1.233782 1.6992402,1.852083 0.5682416,1.063724 0.6005393,1.415891 0.6005393,6.548142 0,5.092667 -0.036979,5.50417 -0.6054183,6.737208 -0.33298,0.722287 -0.7795779,1.505694 -0.9924399,1.740904 -0.3464339,0.382805 -0.2644534,0.515676 0.7817209,1.266981 2.1516523,1.5452 3.9358845,4.526007 4.3218146,7.220191 l 0.2038754,1.423257 1.6202261,0.07797 c 2.5716424,0.123761 2.4754294,0.426218 2.4754294,-7.781815 V 78.01455 l 0.649431,-0.649431 c 0.793388,-0.793388 1.442094,-0.821196 2.357596,-0.101062 l 0.697139,0.54837 v 7.529919 c 0,8.186627 -0.06352,8.610894 -1.488768,9.943487 -0.418104,0.390924 -1.095363,0.837409 -1.505018,0.992187 -0.495843,0.187343 -5.9795237,0.280871 -16.4041663,0.279786 -13.6834737,-0.0014 -15.7594167,-0.05381 -16.4524977,-0.415195 z M 3.2486551,92.373235 c 0,-1.095155 -0.9147596,-3.034909 -2.0009366,-4.243 C -2.9859,83.421433 -10.801906,85.636961 -11.972675,91.877694 l -0.183394,0.977575 h 7.7023621 c 7.2749314,0 7.702362,-0.02675 7.702362,-0.482034 z M -2.3239098,81.259306 c 1.2763955,-0.684538 1.86839844,-1.934253 1.86839844,-3.944179 V 75.657354 H -4.4531801 -8.4508488 l 0.099025,1.960972 c 0.1068248,2.115437 0.4123988,2.68661 1.9431882,3.632171 1.0216814,0.631087 2.9168013,0.635174 4.0847262,0.0088 z M -0.45551136,70.71725 c 0,-1.706071 -0.45882943,-1.939063 -3.81859384,-1.939063 -3.5481997,0 -4.1189057,0.258699 -4.1189057,1.867086 v 1.043331 h 3.9687497 3.96874984 z M 21.509152,86.318284 c -0.658932,-0.837696 -0.542941,-1.810936 0.300929,-2.524993 0.497223,-0.420735 1.351323,-0.463021 9.352114,-0.463021 8.162693,0 8.84887,0.03559 9.407494,0.487936 0.7437,0.602212 0.803333,1.929233 0.120596,2.683649 -0.465149,0.513984 -0.798619,0.532581 -9.549893,0.532581 h -9.067914 z m 0,-7.9375 c -0.658932,-0.837696 -0.542941,-1.810936 0.300929,-2.524993 0.497223,-0.420734 1.351323,-0.463021 9.352114,-0.463021 8.162693,0 8.84887,0.03559 9.407494,0.487936 0.7437,0.602212 0.803333,1.929233 0.120596,2.68365 -0.465149,0.513984 -0.798619,0.532581 -9.549893,0.532581 h -9.067914 z m 0,-7.937499 c -0.658932,-0.837697 -0.542941,-1.810936 0.300929,-2.524994 0.497223,-0.420734 1.351323,-0.46302 9.352114,-0.46302 8.162693,0 8.84887,0.03559 9.407494,0.487936 0.7437,0.602212 0.803333,1.929233 0.120596,2.683649 -0.465149,0.513984 -0.798619,0.532581 -9.549893,0.532581 h -9.067914 z"
         id="path7" /></g></g></svg>
