<?xml version="1.0" encoding="UTF-8" standalone="no"?>
<!-- Created with Inkscape (http://www.inkscape.org/) -->

<svg
   width="66.186142mm"
   height="65.398552mm"
   viewBox="0 0 66.186142 65.398552"
   version="1.1"
   id="svg1"
   xml:space="preserve"
   inkscape:export-filename="path6.svg"
   inkscape:export-xdpi="12.095238"
   inkscape:export-ydpi="12.095238"
   sodipodi:docname="path6.svg"
   inkscape:version="1.3 (0e150ed6c4, 2023-07-21)"
   xmlns:inkscape="http://www.inkscape.org/namespaces/inkscape"
   xmlns:sodipodi="http://sodipodi.sourceforge.net/DTD/sodipodi-0.dtd"
   xmlns="http://www.w3.org/2000/svg"
   xmlns:svg="http://www.w3.org/2000/svg"><sodipodi:namedview
     id="namedview1"
     pagecolor="#ffffff"
     bordercolor="#000000"
     borderopacity="0.25"
     inkscape:showpageshadow="2"
     inkscape:pageopacity="0.0"
     inkscape:pagecheckerboard="0"
     inkscape:deskcolor="#d1d1d1"
     inkscape:document-units="mm"
     inkscape:zoom="1.0733459"
     inkscape:cx="106.67577"
     inkscape:cy="156.98574"
     inkscape:window-width="1366"
     inkscape:window-height="745"
     inkscape:window-x="-8"
     inkscape:window-y="-8"
     inkscape:window-maximized="1"
     inkscape:current-layer="layer1" /><defs
     id="defs1" /><g
     inkscape:label="Layer 1"
     inkscape:groupmode="layer"
     id="layer1"
     transform="translate(-79.694811,-18.357233)"><path
       style="fill:#2a364e;fill-opacity:1;stroke-width:0.947087"
       d="m 115.73286,65.700039 c -1.54309,-0.718564 -3.19746,-2.537534 -3.73037,-4.101553 -0.58938,-1.729717 -0.59479,-1.722966 1.29675,-1.618595 4.04487,0.223164 7.52483,-2.682271 7.99802,-6.677607 l 0.1505,-1.270808 0.74681,0.386186 c 8.49875,4.394874 2.21055,17.320708 -6.46171,13.282377 z m -5.8178,-6.93347 c -2.37166,-1.359066 -3.88593,-4.599106 -3.43374,-7.347156 1.30404,-7.925184 12.82384,-8.298356 14.51371,-0.470163 l 0.17681,0.819051 -1.39429,-0.163876 c -4.28784,-0.503943 -7.89561,2.62678 -8.4767,7.355887 -0.069,0.560631 -0.0695,0.560555 -1.38579,-0.193743 z m 15.60011,-17.276958 c -4.49545,-2.225717 -5.82693,-7.876228 -2.71311,-11.514014 l 0.9035,-1.055536 0.71781,1.333505 c 1.89439,3.51938 5.7529,4.885258 9.51162,3.367042 1.89213,-0.764266 1.86021,-0.787095 1.83004,1.308865 -0.0725,5.042643 -5.84843,8.739305 -10.24986,6.560138 z m -29.638526,-1.62572 c -7.877402,-2.459829 -6.164307,-14.25607 2.07438,-14.284018 2.749786,-0.0094 3.077806,0.141596 2.394226,1.101591 -2.571606,3.611505 -1.849206,8.405839 1.63684,10.863025 l 1.08881,0.767458 -0.80267,0.592193 c -1.65561,1.221469 -4.287756,1.616705 -6.391586,0.959751 z m 8.589546,-1.313895 c -0.88285,-0.212354 -0.9496,-0.51113 -0.30526,-1.366262 2.45291,-3.255387 1.61287,-8.204138 -1.79011,-10.545446 l -1.11995,-0.770538 0.73062,-0.589891 c 3.59714,-2.90427 9.93931,-0.759843 11.26778,3.809877 1.62183,5.578903 -3.22398,10.799406 -8.78308,9.46226 z m 30.82538,-6.996477 c -1.5066,-3.619422 -6.25313,-5.403605 -9.8818,-3.714481 -1.66313,0.774185 -1.84339,0.609129 -1.69279,-1.549961 0.4587,-6.575844 8.34979,-9.184815 12.8883,-4.261136 2.43796,2.644862 2.30331,7.497092 -0.27471,9.901456 l -0.63574,0.592906 z"
       id="path6"
       inkscape:export-filename="path6.svg"
       inkscape:export-xdpi="12.095238"
       inkscape:export-ydpi="12.095238" /></g></svg>
